# xmcd
#
# Track frame offsets:
#	150
#	12701
#	28500
#	42532
#	55588
#	70953
#	86294
#	103238
#	117429
#	135242
#	150703
#
# Disc length: 2207 seconds
#
# Revision: 0
# Processed by: cddbd v1.5.1PL2 Copyright (c) Steve Scherf et al.
# Submitted via: dBpowerAMP V4.0
#
DISCID=8e089d0b
DTITLE=MIRYAM and CALDERON - RIVIERA
DYEAR=2003
DGENRE=Blues
TTITLE0=Sé
TTITLE1=Entre dos amores
TTITLE2=Habia olvidado
TTITLE3=Es Mejor Decirse Adios
TTITLE4=Tómame o Déjame
TTITLE5=Por que Tengo Que amarte
TTITLE6=Me Perdi en Tu Cuerpo
TTITLE7=Agua
TTITLE8=Estas En Mi Terreno
TTITLE9=Un Hombre Secreto
TTITLE10=Te Amaré
EXTD=
EXTT0=
EXTT1=
EXTT2=
EXTT3=
EXTT4=
EXTT5=
EXTT6=
EXTT7=
EXTT8=
EXTT9=
EXTT10=
PLAYORDER=
